<svg xmlns="http://www.w3.org/2000/svg"
  xmlns:xlink="http://www.w3.org/1999/xlink"
  xmlns:svgjs="http://svgjs.com/svgjs"
  version="1.1"
  width="269"
  height="269"
  viewBox="0 0 269 269">
  <style>
    #blue {
      fill: #00386c;
    }
    #red {
      fill: #cd0000;
    }
    @media (prefers-color-scheme: dark) {
      #blue {
        fill: #0687ff;
      }
      #red {
        fill: #ff0101;
      }
    }
  </style>
  <path
    id="blue"
    d="M 125.089844 160.34375 L 102.566406 160.34375 C 85.648438 161.199219 75.613281 164.105469 74.4375 193.402344 L 74.4375 268.039062 C 0.835938 268.039062 0.835938 268.039062 0.835938 234.707031 L 0.835938 34.65625 C 0.835938 1.304688 0.835938 1.304688 74.4375 1.304688 L 74.4375 75.835938 C 74.4375 103.292969 85.648438 107.996094 102.566406 109.003906 L 166.429688 109.003906 C 183.5625 107.710938 194.558594 103.292969 194.558594 75.957031 L 194.558594 1.308594 C 268.460938 1.308594 268.160156 1.308594 268.160156 34.660156 L 268.160156 234.703125 C 268.160156 268.035156 268.460938 268.035156 194.558594 268.035156 L 194.558594 193.40625 C 194.757812 164.109375 183.5625 161.351562 166.429688 160.347656 Z M 125.089844 160.34375 ">
  </path>
  <path
    id="red"
    d="M 134.515625 55.601562 C 125.089844 55.601562 125.089844 41.332031 134.925781 41.332031 L 181.21875 41.332031 L 181.21875 22.019531 C 181.21875 15.351562 181.21875 0.839844 167.835938 0.839844 L 104.542969 1.304688 C 87.808594 1.304688 87.808594 14.652344 87.808594 21.320312 L 87.808594 74.664062 C 87.808594 81.335938 87.808594 95.851562 104.542969 95.851562 L 167.835938 96.089844 C 181.21875 96.089844 181.21875 81.582031 181.21875 74.910156 L 181.21875 55.601562 Z M 134.652344 227.667969 C 125.210938 227.667969 125.210938 213.398438 135.066406 213.398438 L 181.339844 213.398438 L 181.339844 194.089844 C 181.339844 187.421875 181.339844 172.910156 167.96875 172.910156 L 104.683594 173.394531 C 87.949219 173.394531 87.949219 186.734375 87.949219 193.402344 L 87.949219 246.734375 C 87.949219 253.40625 87.949219 267.921875 104.683594 267.921875 L 167.972656 268.160156 C 181.34375 268.160156 181.34375 253.652344 181.34375 246.980469 L 181.34375 227.667969 Z M 134.652344 227.667969 ">
  </path>
</svg>