<svg xmlns="http://www.w3.org/2000/svg"
  viewBox="0 0 138 56"
  color-rendering="optimizeQuality"
  shape-rendering="geometricPrecision"
  stroke-linecap="round"
  stroke-linejoin="round">
  <path
    fill="#00386c"
    stroke="#00386c"
    stroke-width="0.05"
    vector-effect="non-scaling-stroke"
    d="m11.2 14.3h-2.01c-1.51 0.078-2.41 0.336-2.51 2.95v6.66c-6.57 0-6.57 0-6.57-2.97v-17.8c6e-16 -2.98 6e-16 -2.98 6.57-2.98v6.65c0 2.45 1 2.87 2.51 2.96h5.7c1.53-0.117 2.51-0.511 2.51-2.95v-6.66c6.59 0 6.57 0 6.57 2.98v17.8c0 2.97 0.027 2.97-6.57 2.97v-6.66c0.016-2.61-0.98-2.86-2.51-2.95zm27.8 7.2c0 0.36-0.926 0.54-2.78 0.54-1.86 0-2.78-0.18-2.78-0.54v-13.4h-3.37c-0.325 0-0.551-0.41-0.676-1.23a8.05 8.05 0 0 1-0.086-1.2c0-0.41 0.027-0.809 0.086-1.2 0.125-0.816 0.351-1.22 0.676-1.22h12.2c0.32 0 0.547 0.406 0.672 1.22 0.059 0.39 0.086 0.789 0.086 1.2a8.1 8.1 0 0 1-0.086 1.2c-0.125 0.825-0.351 1.23-0.672 1.23h-3.29zm16.1 0.488c-1.62 0-2.51-0.25-2.64-0.75l-0.93-3.44h-4.46l-0.816 3.3c-0.113 0.551-1.02 0.829-2.7 0.829-0.898 0-1.57-0.047-2-0.145s-0.645-0.18-0.645-0.234l4.98-18c0-0.137 1.28-0.208 3.86-0.208 2.57 0 3.85 0.07 3.85 0.208l4.87 18.1c0 0.125-0.433 0.227-1.29 0.297l-2.05 0.11zm-7.33-7.57h2.94l-1.27-5.52h-0.168zm32 7.54c-1.67 0-2.5-0.18-2.5-0.531l-0.601-10.7-3.43 10.8c-0.074 0.215-0.71 0.324-1.91 0.324-1.2 0-1.82-0.098-1.86-0.297l-3.54-10.9-0.398 10.6c-0.02 0.265-0.375 0.445-1.06 0.543-0.7 0.101-1.27 0.152-1.73 0.152s-0.911-0.027-1.34-0.082c-0.9-0.125-1.34-0.348-1.32-0.664l0.644-17.3c0-0.425 1.15-0.64 3.43-0.64 0.68 0 1.5 0.047 2.48 0.144 0.98 0.097 1.52 0.29 1.63 0.575l3.15 8.39 2.76-8.42c0.168-0.46 1.46-0.691 3.88-0.691 0.695 0 1.53 0.047 2.49 0.144 0.969 0.094 1.45 0.27 1.45 0.524l0.817 17.5c0 0.192-0.368 0.332-1.1 0.422s-1.38 0.137-1.94 0.137zm6.13-6.53c0.356 0.265 0.97 0.629 1.84 1.09 0.87 0.461 1.7 0.695 2.5 0.695 0.8 0 1.2-0.297 1.2-0.883 0-0.266-0.114-0.5-0.336-0.703-0.227-0.203-0.641-0.442-1.24-0.711a40.1 40.1 0 0 1-1.35-0.621c-0.301-0.149-0.7-0.399-1.2-0.746-0.492-0.348-0.87-0.707-1.13-1.08-0.754-1.01-1.13-2.3-1.13-3.86 0-1.57 0.617-2.89 1.84-3.96 1.23-1.08 2.83-1.61 4.83-1.61 1.35 0 2.59 0.137 3.73 0.414 1.15 0.273 1.74 0.637 1.78 1.08v0.165c0 0.617-0.207 1.4-0.617 2.36-0.41 0.949-0.703 1.48-0.875 1.59-1.19-0.59-2.27-0.883-3.22-0.883s-1.42 0.32-1.42 0.965c0 0.386 0.347 0.734 1.04 1.04l0.644 0.297 0.969 0.43a13.97 13.97 0 0 1 1.19 0.648c0.418 0.254 0.871 0.59 1.36 1.02 0.992 0.891 1.49 2.06 1.49 3.52 0 1.9-0.555 3.46-1.66 4.66s-2.81 1.82-5.11 1.86c-1.13 0-2.14-0.09-3.05-0.261-0.914-0.18-1.71-0.528-2.38-1.04-0.67-0.512-1.01-1.13-1.01-1.86s0.137-1.45 0.418-2.17c0.281-0.72 0.586-1.19 0.902-1.42zm-75.23 29.552h-0.616v-4.68h-1.01v-0.557h2.64v0.557h-1.01zm2.46-3.94v3.94h-0.594v-3.94zm-0.286-1.48q0.169 0 0.249 0.11 0.088 0.11 0.088 0.315 0 0.198-0.088 0.308-0.08 0.11-0.249 0.11-0.161 0-0.257-0.11-0.096-0.11-0.095-0.308 0-0.213 0.088-0.315 0.095-0.11 0.264-0.11zm4.68 1.41q0.477 0 0.697 0.337 0.227 0.337 0.227 1.03v2.64h-0.594v-2.53q0-0.513-0.125-0.733-0.125-0.22-0.374-0.22-0.352 0-0.499 0.337-0.147 0.33-0.147 0.975v2.17h-0.587v-2.55q0-0.337-0.059-0.543-0.051-0.205-0.16-0.293-0.11-0.095-0.28-0.095-0.264 0-0.403 0.183-0.139 0.176-0.19 0.499-0.052 0.323-0.052 0.74v2.06h-0.594v-3.94h0.477l0.066 0.536h0.037q0.08-0.205 0.198-0.337 0.125-0.132 0.286-0.198 0.16-0.074 0.359-0.074 0.337 0 0.535 0.176 0.198 0.176 0.264 0.455h0.044q0.139-0.323 0.345-0.477 0.205-0.154 0.528-0.154zm3.26 7e-3q0.403 0 0.667 0.235 0.264 0.227 0.396 0.623 0.132 0.39 0.132 0.88v0.411h-1.87q0.015 0.711 0.227 1.07 0.213 0.352 0.645 0.352 0.213 0 0.418-0.066 0.213-0.066 0.433-0.205v0.528q-0.205 0.125-0.433 0.183-0.227 0.066-0.484 0.066-0.499 0-0.807-0.264-0.308-0.27-0.447-0.726-0.139-0.455-0.139-1.03 0-0.667 0.139-1.12 0.147-0.462 0.425-0.697 0.286-0.242 0.697-0.242zm0 0.484q-0.301 0-0.469 0.293-0.169 0.293-0.198 0.902h1.31q0-0.323-0.066-0.594-0.066-0.27-0.213-0.433-0.139-0.169-0.359-0.169zm5.01-0.49q0.557 0 0.792 0.351 0.235 0.352 0.235 1v2.65h-0.455l-0.088-0.543h-0.015q-0.103 0.205-0.235 0.345-0.132 0.132-0.3 0.198-0.162 0.074-0.368 0.074-0.3 0-0.499-0.161-0.198-0.17-0.293-0.433-0.088-0.271-0.088-0.58 0-0.586 0.337-0.908 0.337-0.323 0.961-0.352l0.447-0.022v-0.257q0-0.455-0.125-0.667-0.125-0.213-0.403-0.213-0.16 0-0.345 0.058-0.183 0.059-0.396 0.183l-0.19-0.447q0.234-0.147 0.49-0.213 0.257-0.073 0.535-0.073zm0.088 2.08q-0.403 0.021-0.601 0.226-0.191 0.198-0.191 0.587 0 0.36 0.125 0.535 0.125 0.17 0.352 0.17 0.308 0 0.484-0.302 0.183-0.308 0.183-0.843v-0.396zm3.62-2.08q0.477 0 0.719 0.33 0.242 0.33 0.242 1.01v2.67h-0.594v-2.55q0-0.463-0.117-0.698t-0.381-0.235q-0.381 0-0.55 0.337t-0.169 1.1v2.05h-0.594v-3.94h0.477l0.066 0.535h0.037q0.088-0.198 0.213-0.33 0.132-0.139 0.3-0.205 0.17-0.073 0.353-0.073zm3.18 4.08q-0.565 0-0.858-0.522-0.293-0.52-0.293-1.52 0-0.983 0.293-1.51 0.293-0.535 0.836-0.535 0.183 0 0.345 0.066 0.161 0.066 0.301 0.198 0.139 0.125 0.235 0.315h0.03l-0.015-0.293q-8e-3 -0.132-8e-3 -0.249v-1.6h0.594v5.57h-0.477l-0.08-0.499h-0.037q-0.103 0.183-0.235 0.315-0.125 0.125-0.286 0.191-0.154 0.066-0.345 0.066zm0.139-0.507q0.359 0 0.543-0.337 0.183-0.337 0.183-1.02v-0.22q0-0.763-0.176-1.11-0.176-0.359-0.565-0.359-0.345 0-0.506 0.39-0.161 0.388-0.161 1.13 0 0.754 0.161 1.14 0.169 0.388 0.521 0.388zm6.39 0.433-0.381-1.64h-1.22l-0.381 1.64h-0.66l1.27-5.24h0.741l1.29 5.24zm-0.887-3.92q-0.022-0.139-0.051-0.264l-0.044-0.257-0.03-0.235q-7e-3 0.11-0.029 0.235-0.015 0.125-0.044 0.257-0.022 0.125-0.051 0.257l-0.374 1.72h1.01zm3.28 3.47q0.088 0 0.176-0.022 0.088-0.022 0.176-0.051v0.484q-0.117 0.051-0.249 0.08-0.132 0.037-0.301 0.037-0.257 0-0.425-0.117-0.169-0.117-0.249-0.345-0.08-0.235-0.08-0.587v-2.46h-0.368v-0.323l0.396-0.16 0.161-0.903h0.403v0.887h0.66v0.5h-0.66v2.39q0 0.292 0.074 0.446 0.073 0.147 0.286 0.147zm2.2 0q0.088 0 0.176-0.022 0.088-0.022 0.176-0.051v0.484q-0.117 0.051-0.249 0.08-0.132 0.037-0.301 0.037-0.257 0-0.425-0.117-0.168-0.117-0.249-0.345-0.08-0.235-0.08-0.587v-2.46h-0.368v-0.323l0.396-0.16 0.161-0.903h0.403v0.887h0.66v0.5h-0.66v2.39q0 0.292 0.074 0.446 0.073 0.147 0.286 0.147zm2.33-3.55q0.403 0 0.667 0.235 0.264 0.227 0.396 0.623 0.132 0.39 0.132 0.88v0.411h-1.87q0.015 0.711 0.227 1.07 0.213 0.352 0.645 0.352 0.213 0 0.418-0.066 0.213-0.066 0.433-0.205v0.528q-0.205 0.125-0.433 0.183-0.227 0.066-0.484 0.066-0.499 0-0.807-0.264-0.308-0.27-0.447-0.726-0.139-0.455-0.139-1.03 0-0.667 0.139-1.12 0.147-0.462 0.425-0.697 0.286-0.242 0.697-0.242zm0 0.484q-0.301 0-0.469 0.293-0.169 0.293-0.198 0.902h1.31q0-0.323-0.066-0.594-0.066-0.27-0.213-0.433-0.139-0.169-0.359-0.169zm3.71-0.49q0.477 0 0.719 0.33 0.242 0.33 0.242 1.01v2.67h-0.594v-2.55q0-0.463-0.117-0.698t-0.381-0.235q-0.381 0-0.55 0.337-0.169 0.337-0.169 1.1v2.05h-0.594v-3.94h0.477l0.066 0.535h0.037q0.088-0.198 0.213-0.33 0.132-0.139 0.3-0.205 0.17-0.073 0.353-0.073zm3.18 4.08q-0.565 0-0.858-0.522-0.293-0.52-0.293-1.52 0-0.983 0.293-1.51 0.293-0.535 0.836-0.535 0.183 0 0.345 0.066 0.161 0.066 0.301 0.198 0.139 0.125 0.235 0.315h0.03l-0.015-0.293q-8e-3 -0.132-8e-3 -0.249v-1.6h0.594v5.57h-0.477l-0.08-0.499h-0.037q-0.103 0.183-0.235 0.315-0.125 0.125-0.286 0.191-0.154 0.066-0.345 0.066zm0.139-0.507q0.359 0 0.543-0.337 0.183-0.337 0.183-1.02v-0.22q0-0.763-0.176-1.11-0.176-0.359-0.565-0.359-0.345 0-0.506 0.39-0.161 0.388-0.161 1.13 0 0.754 0.161 1.14 0.169 0.388 0.521 0.388zm3.65-3.58q0.557 0 0.792 0.352 0.235 0.352 0.235 1v2.65h-0.455l-0.088-0.543h-0.015q-0.103 0.205-0.235 0.345-0.132 0.132-0.3 0.198-0.162 0.074-0.368 0.074-0.3 0-0.499-0.161-0.198-0.17-0.293-0.433-0.088-0.271-0.088-0.58 0-0.586 0.337-0.908 0.337-0.323 0.961-0.352l0.447-0.022v-0.257q0-0.455-0.125-0.667-0.125-0.213-0.403-0.213-0.16 0-0.345 0.058-0.183 0.059-0.396 0.183l-0.19-0.447q0.234-0.147 0.49-0.213 0.257-0.073 0.535-0.073zm0.088 2.08q-0.403 0.022-0.601 0.227-0.191 0.198-0.191 0.587 0 0.36 0.125 0.535 0.125 0.17 0.352 0.17 0.308 0 0.484-0.302 0.183-0.308 0.183-0.843v-0.396zm3.62-2.08q0.477 0 0.719 0.33 0.242 0.33 0.242 1.01v2.67h-0.594v-2.55q0-0.462-0.117-0.697t-0.381-0.235q-0.381 0-0.55 0.337-0.169 0.337-0.169 1.1v2.05h-0.594v-3.94h0.477l0.066 0.535h0.037q0.088-0.198 0.213-0.33 0.132-0.139 0.3-0.205 0.17-0.073 0.353-0.073zm3.34 4.08q-0.433 0-0.726-0.22-0.293-0.227-0.44-0.675-0.139-0.455-0.139-1.12 0-0.645 0.139-1.11 0.147-0.462 0.44-0.71 0.293-0.25 0.741-0.25 0.235 0 0.418 0.052 0.183 0.044 0.337 0.132l-0.183 0.49q-0.139-0.073-0.271-0.11-0.132-0.036-0.257-0.036-0.249 0-0.418 0.176-0.169 0.169-0.257 0.513-0.08 0.337-0.08 0.843 0 0.499 0.08 0.836 0.088 0.337 0.257 0.506 0.176 0.16 0.425 0.16 0.161 0 0.323-0.043 0.169-0.051 0.337-0.14v0.5q-0.154 0.095-0.359 0.147-0.198 0.059-0.367 0.059zm2.8-4.08q0.403 0 0.667 0.235 0.264 0.227 0.396 0.623 0.132 0.39 0.132 0.88v0.411h-1.87q0.015 0.711 0.227 1.07 0.213 0.352 0.645 0.352 0.213 0 0.418-0.066 0.213-0.066 0.433-0.205v0.528q-0.205 0.125-0.433 0.183-0.227 0.066-0.484 0.066-0.499 0-0.807-0.264-0.308-0.27-0.447-0.726-0.139-0.455-0.139-1.03 0-0.667 0.139-1.12 0.147-0.462 0.425-0.697 0.286-0.242 0.697-0.242zm0 0.484q-0.301 0-0.469 0.293-0.169 0.293-0.198 0.902h1.31q0-0.323-0.066-0.594-0.066-0.27-0.213-0.433-0.139-0.169-0.359-0.169zm5.8 3.52-1.25-4.39h-0.03q0.015 0.242 0.023 0.447 0.014 0.198 0.014 0.345 8e-3 0.147 8e-3 0.242v3.36h-0.587v-5.24h0.873l1.22 4.28h0.022l1.22-4.28h0.88v5.24h-0.601v-3.597l0.014-0.352q0.015-0.198 0.022-0.44h-0.029l-1.25 4.39zm4.77-4.01q0.557 0 0.792 0.352 0.235 0.352 0.235 1v2.65h-0.455l-0.088-0.543h-0.015q-0.103 0.205-0.235 0.345-0.132 0.132-0.3 0.198-0.162 0.074-0.368 0.074-0.3 0-0.499-0.161-0.198-0.17-0.293-0.433-0.088-0.271-0.088-0.58 0-0.586 0.337-0.908 0.337-0.323 0.961-0.352l0.447-0.022v-0.257q0-0.455-0.125-0.667-0.125-0.213-0.403-0.213-0.16 0-0.345 0.058-0.183 0.059-0.396 0.183l-0.19-0.447q0.234-0.147 0.49-0.213 0.257-0.073 0.535-0.073zm0.088 2.08q-0.403 0.022-0.601 0.227-0.191 0.198-0.191 0.587 0 0.36 0.125 0.535 0.125 0.17 0.352 0.17 0.308 0 0.484-0.302 0.183-0.308 0.183-0.843v-0.396zm3.62-2.08q0.477 0 0.719 0.33 0.242 0.33 0.242 1.01v2.67h-0.594v-2.55q0-0.462-0.117-0.697-0.117-0.235-0.381-0.235-0.381 0-0.55 0.337-0.169 0.337-0.169 1.1v2.05h-0.594v-3.94h0.477l0.066 0.535h0.037q0.088-0.198 0.213-0.33 0.132-0.139 0.3-0.205 0.17-0.073 0.353-0.073zm3.28 0q0.557 0 0.792 0.352 0.235 0.352 0.235 1v2.65h-0.455l-0.088-0.543h-0.015q-0.103 0.205-0.235 0.345-0.132 0.132-0.3 0.198-0.162 0.074-0.368 0.074-0.3 0-0.499-0.161-0.198-0.17-0.293-0.433-0.088-0.271-0.088-0.58 0-0.586 0.337-0.908 0.337-0.323 0.961-0.352l0.447-0.022v-0.257q0-0.455-0.125-0.667-0.125-0.213-0.403-0.213-0.16 0-0.345 0.058-0.183 0.059-0.396 0.183l-0.19-0.447q0.234-0.147 0.49-0.213 0.257-0.073 0.535-0.073zm0.088 2.08q-0.403 0.022-0.601 0.227-0.191 0.198-0.191 0.587 0 0.36 0.125 0.535 0.125 0.17 0.352 0.17 0.308 0 0.484-0.302 0.183-0.308 0.183-0.843v-0.396zm3.16-2.08q0.279 0 0.484 0.14 0.213 0.138 0.374 0.454h0.037l0.066-0.52h0.499v3.98q0 0.542-0.154 0.923-0.154 0.39-0.484 0.587-0.33 0.205-0.851 0.205-0.271 0-0.5-0.058-0.22-0.052-0.432-0.17v-0.564q0.249 0.132 0.469 0.198 0.227 0.066 0.447 0.066 0.455 0 0.682-0.242 0.227-0.235 0.227-0.807v-0.117q0-0.125 7e-3 -0.28 7e-3 -0.16 0.022-0.336h-0.03q-0.16 0.315-0.373 0.469t-0.513 0.154q-0.535 0-0.836-0.513-0.293-0.513-0.293-1.51 0-1.03 0.308-1.54 0.308-0.521 0.843-0.521zm0.125 0.528q-0.227 0-0.381 0.176-0.147 0.176-0.22 0.521-0.066 0.337-0.066 0.843 0 0.777 0.169 1.14 0.169 0.36 0.521 0.36 0.176 0 0.308-0.081 0.139-0.088 0.227-0.257 0.088-0.169 0.132-0.418 0.051-0.257 0.051-0.594v-0.183q0-0.521-0.08-0.851-0.074-0.337-0.242-0.491-0.161-0.161-0.418-0.161zm3.68-0.52q0.403 0 0.667 0.234 0.264 0.227 0.396 0.623 0.132 0.39 0.132 0.88v0.411h-1.87q0.015 0.711 0.227 1.07 0.213 0.352 0.645 0.352 0.213 0 0.418-0.066 0.213-0.066 0.433-0.205v0.528q-0.205 0.125-0.433 0.183-0.227 0.066-0.484 0.066-0.499 0-0.807-0.264-0.308-0.27-0.447-0.726-0.139-0.455-0.139-1.03 0-0.667 0.139-1.12 0.147-0.462 0.425-0.697 0.286-0.242 0.697-0.242zm0 0.483q-0.301 0-0.469 0.293-0.169 0.293-0.198 0.902h1.31q0-0.323-0.066-0.594-0.066-0.27-0.213-0.433-0.139-0.169-0.359-0.169zm5.4-0.49q0.477 0 0.697 0.336 0.227 0.337 0.227 1.03v2.64h-0.594v-2.53q0-0.513-0.125-0.733-0.125-0.22-0.374-0.22-0.352 0-0.499 0.337-0.147 0.33-0.147 0.975v2.17h-0.587v-2.55q0-0.337-0.059-0.543-0.051-0.205-0.16-0.293-0.11-0.095-0.28-0.095-0.264 0-0.403 0.183-0.139 0.176-0.19 0.499-0.052 0.323-0.052 0.741v2.06h-0.594v-3.94h0.477l0.066 0.535h0.037q0.08-0.205 0.198-0.337 0.125-0.132 0.286-0.198 0.16-0.073 0.359-0.073 0.337 0 0.535 0.176 0.198 0.176 0.264 0.455h0.044q0.139-0.323 0.345-0.477 0.205-0.154 0.528-0.154zm3.26 7e-3q0.403 0 0.667 0.235 0.264 0.227 0.396 0.623 0.132 0.389 0.132 0.88v0.41h-1.87q0.015 0.712 0.227 1.07 0.213 0.353 0.645 0.353 0.213 0 0.418-0.066 0.213-0.066 0.433-0.205v0.528q-0.205 0.125-0.433 0.183-0.227 0.066-0.484 0.066-0.499 0-0.807-0.264-0.308-0.271-0.447-0.726-0.139-0.455-0.139-1.03 0-0.667 0.139-1.12 0.147-0.462 0.425-0.697 0.286-0.242 0.697-0.242zm0 0.484q-0.301 0-0.469 0.293-0.169 0.293-0.198 0.902h1.31q0-0.323-0.066-0.594t-0.213-0.433q-0.139-0.17-0.359-0.17zm3.71-0.491q0.477 0 0.719 0.33 0.242 0.33 0.242 1.01v2.67h-0.594v-2.55q0-0.462-0.117-0.697t-0.381-0.235q-0.381 0-0.55 0.337-0.169 0.337-0.169 1.1v2.05h-0.594v-3.94h0.477l0.066 0.535h0.037q0.088-0.198 0.213-0.33 0.132-0.14 0.3-0.205 0.17-0.074 0.353-0.074zm3.17 3.56q0.088 0 0.176-0.022t0.176-0.052v0.484q-0.117 0.052-0.249 0.081-0.132 0.037-0.301 0.037-0.257 0-0.425-0.117-0.169-0.117-0.249-0.345-0.08-0.235-0.08-0.587v-2.46h-0.368v-0.323l0.396-0.161 0.161-0.902h0.403v0.887h0.66v0.499h-0.66v2.39q0 0.293 0.074 0.447 0.073 0.147 0.286 0.147zm5.16-0.983q0 0.44-0.176 0.785-0.169 0.337-0.477 0.535-0.308 0.19-0.726 0.19-0.213 0-0.403-0.029-0.191-0.022-0.367-0.073-0.169-0.051-0.323-0.125v-0.638q0.249 0.14 0.535 0.213t0.535 0.073 0.418-0.117q0.176-0.117 0.264-0.315 0.095-0.205 0.095-0.44 0-0.257-0.08-0.433-0.074-0.176-0.25-0.323-0.175-0.147-0.476-0.3-0.235-0.126-0.425-0.258-0.183-0.139-0.315-0.308-0.125-0.169-0.198-0.396-0.066-0.227-0.066-0.535-8e-3 -0.41 0.16-0.719 0.177-0.315 0.478-0.49 0.308-0.177 0.697-0.17 0.308 0 0.579 0.081 0.27 0.073 0.477 0.176l-0.198 0.565q-0.22-0.125-0.433-0.183-0.213-0.059-0.411-0.059-0.227 0-0.39 0.103-0.16 0.096-0.248 0.271-0.088 0.17-0.088 0.396 0 0.271 0.073 0.447 0.073 0.17 0.249 0.308 0.183 0.132 0.484 0.301 0.345 0.176 0.565 0.39 0.22 0.212 0.33 0.476 0.11 0.264 0.11 0.601zm0.608-2.5h0.616l0.535 2.23q0.03 0.139 0.059 0.286t0.058 0.3q0.03 0.155 0.052 0.309h0.029q0.03-0.205 0.073-0.425 0.044-0.22 0.103-0.47l0.521-2.23h0.61l-1.16 4.53q-0.11 0.404-0.258 0.66-0.139 0.258-0.337 0.382-0.19 0.125-0.462 0.125-0.088 0-0.176-0.015t-0.19-0.044v-0.528q0.073 0.022 0.146 0.037 0.074 0.014 0.14 0.014 0.146 0 0.241-0.073 0.096-0.066 0.17-0.235 0.073-0.16 0.146-0.44l0.125-0.499zm5.24 2.88q0 0.359-0.132 0.616-0.132 0.249-0.381 0.38-0.249 0.133-0.601 0.133-0.271 0-0.499-0.066-0.227-0.059-0.396-0.154v-0.616q0.161 0.132 0.396 0.22 0.235 0.08 0.477 0.08 0.257 0 0.403-0.147 0.147-0.154 0.147-0.425 0-0.154-0.059-0.27-0.058-0.126-0.19-0.236-0.133-0.11-0.353-0.235-0.242-0.154-0.433-0.315-0.183-0.16-0.286-0.374-0.103-0.213-0.103-0.513 0-0.469 0.301-0.748 0.308-0.286 0.8-0.286 0.256 0 0.476 0.066t0.425 0.191l-0.22 0.477q-0.154-0.103-0.323-0.16-0.169-0.067-0.352-0.067-0.249 0-0.396 0.14-0.139 0.138-0.139 0.373 0 0.154 0.059 0.271 0.059 0.117 0.198 0.227 0.139 0.103 0.367 0.242 0.242 0.154 0.425 0.315 0.183 0.161 0.286 0.374 0.103 0.205 0.103 0.506zm1.98 0.6q0.088 0 0.176-0.021 0.088-0.022 0.176-0.052v0.484q-0.117 0.052-0.249 0.081-0.132 0.037-0.301 0.037-0.257 0-0.425-0.117-0.169-0.117-0.249-0.345-0.08-0.235-0.08-0.587v-2.46h-0.368v-0.323l0.396-0.161 0.161-0.902h0.403v0.887h0.66v0.499h-0.66v2.39q0 0.293 0.074 0.447 0.073 0.147 0.286 0.147zm2.33-3.55q0.403 0 0.667 0.236 0.264 0.227 0.396 0.623 0.132 0.389 0.132 0.88v0.41h-1.87q0.015 0.712 0.227 1.07 0.213 0.353 0.645 0.353 0.213 0 0.418-0.066 0.213-0.066 0.433-0.205v0.528q-0.205 0.125-0.433 0.183-0.227 0.066-0.484 0.066-0.499 0-0.807-0.264-0.308-0.271-0.447-0.726t-0.139-1.03q0-0.667 0.139-1.12 0.147-0.462 0.425-0.697 0.286-0.242 0.697-0.242zm0 0.485q-0.301 0-0.469 0.293-0.169 0.293-0.198 0.902h1.31q0-0.323-0.066-0.594t-0.213-0.433q-0.139-0.17-0.359-0.17zm5.4-0.491q0.477 0 0.697 0.337 0.227 0.337 0.227 1.03v2.64h-0.594v-2.53q0-0.513-0.125-0.733-0.125-0.22-0.374-0.22-0.352 0-0.499 0.337-0.147 0.33-0.147 0.975v2.17h-0.587v-2.55q0-0.337-0.059-0.543-0.051-0.205-0.16-0.293-0.11-0.096-0.28-0.096-0.264 0-0.403 0.183-0.139 0.176-0.19 0.5-0.052 0.322-0.052 0.74v2.06h-0.594v-3.94h0.477l0.066 0.535h0.037q0.08-0.205 0.198-0.337 0.125-0.132 0.286-0.198 0.16-0.073 0.359-0.073 0.337 0 0.535 0.176 0.198 0.176 0.264 0.455h0.044q0.139-0.323 0.345-0.477 0.205-0.154 0.528-0.154zm-107.65 11.12q0-0.667 0.125-1.25 0.125-0.594 0.352-1.1 0.227-0.513 0.521-0.924h0.873q-0.477 0.711-0.711 1.53-0.235 0.814-0.235 1.74 0 0.594 0.11 1.15 0.11 0.55 0.315 1.06 0.213 0.521 0.513 1.01h-0.865q-0.308-0.425-0.535-0.924-0.22-0.491-0.345-1.06-0.117-0.579-0.117-1.23zm4.33 2.06h-0.99v-4.36h-0.975v-0.873h2.93v0.873h-0.968zm4.04 0-0.271-1.26h-1.17l-0.271 1.26h-1.08l1.27-5.24h1.3l1.29 5.24zm-0.711-3.52-0.059-0.337q-0.022-0.169-0.044-0.315-0.022-0.154-0.044-0.286-7e-3 0.125-0.029 0.279-0.022 0.147-0.051 0.315-0.03 0.161-0.066 0.33l-0.28 1.4h0.859zm4.5 3.52-1.03-3.86h-0.03q0.023 0.242 0.03 0.455 0.015 0.213 0.015 0.389 7e-3 0.176 7e-3 0.323v2.7h-0.939v-5.24h1.39l0.968 3.59h0.022l0.968-3.59h1.38v5.24h-0.961v-3.047l0.015-0.381 0.029-0.433h-0.03l-1.04 3.86zm6.53-1.53q0 0.469-0.191 0.836-0.191 0.359-0.535 0.565-0.345 0.205-0.814 0.205-0.22 0-0.425-0.03-0.205-0.021-0.403-0.08-0.191-0.066-0.389-0.176v-1.03q0.286 0.183 0.594 0.286 0.308 0.095 0.572 0.095 0.191 0 0.315-0.073 0.132-0.08 0.191-0.205 0.066-0.132 0.066-0.293 0-0.169-0.059-0.301-0.051-0.132-0.205-0.264-0.147-0.132-0.44-0.301-0.227-0.139-0.418-0.279-0.183-0.147-0.315-0.315-0.125-0.176-0.198-0.403-0.066-0.235-0.066-0.543 0-0.447 0.176-0.777t0.506-0.513q0.337-0.191 0.807-0.183 0.323 0 0.623 0.088 0.308 0.08 0.594 0.242l-0.279 0.887q-0.249-0.154-0.477-0.227-0.227-0.073-0.425-0.073-0.169 0-0.286 0.066-0.117 0.066-0.176 0.183-0.058 0.11-0.058 0.257 0 0.183 0.058 0.315 0.058 0.132 0.213 0.257 0.161 0.117 0.462 0.293 0.33 0.19 0.543 0.403 0.22 0.213 0.33 0.477 0.11 0.264 0.11 0.609zm2.49-0.528q0 0.653-0.125 1.23-0.125 0.572-0.352 1.07-0.22 0.499-0.535 0.917h-0.858q0.301-0.499 0.506-1.01 0.213-0.513 0.323-1.06 0.11-0.557 0.11-1.15 0-0.623-0.103-1.19-0.103-0.565-0.315-1.09-0.205-0.521-0.521-0.997h0.858q0.308 0.411 0.535 0.924t0.352 1.11q0.125 0.587 0.125 1.25zm5.621 0.398q0 0.594-0.161 0.975-0.161 0.374-0.477 0.557-0.308 0.183-0.777 0.183-0.697 0-1.06-0.418-0.367-0.418-0.367-1.29v-3.6h0.616v3.61q0 0.601 0.213 0.873 0.213 0.264 0.601 0.264 0.264 0 0.44-0.11 0.176-0.117 0.264-0.367 0.088-0.257 0.088-0.667v-3.6h0.623zm2.71-2.37q0.477 0 0.719 0.33 0.242 0.33 0.242 1.01v2.67h-0.594v-2.55q0-0.462-0.117-0.697-0.117-0.235-0.381-0.235-0.381 0-0.55 0.337t-0.169 1.1v2.05h-0.594v-3.94h0.477l0.066 0.535h0.037q0.088-0.198 0.213-0.33 0.132-0.139 0.3-0.205 0.17-0.073 0.353-0.073zm4.68 2.04q0 0.462-0.08 0.836-0.081 0.374-0.243 0.645-0.16 0.271-0.418 0.418-0.249 0.147-0.594 0.147-0.33 0-0.579-0.147-0.242-0.147-0.41-0.411-0.162-0.271-0.243-0.645-0.08-0.381-0.08-0.843 0-0.653 0.139-1.11 0.147-0.455 0.44-0.689 0.293-0.242 0.748-0.242 0.418 0 0.71 0.235 0.302 0.227 0.456 0.682 0.154 0.447 0.154 1.12zm-2.04 0q0 0.499 0.073 0.843 0.081 0.337 0.235 0.513 0.161 0.169 0.411 0.169t0.403-0.169q0.161-0.169 0.235-0.506 0.081-0.345 0.081-0.851t-0.08-0.843q-0.074-0.337-0.236-0.506-0.154-0.169-0.403-0.169-0.38 0-0.55 0.381-0.169 0.374-0.169 1.14zm4.41-1.47h-0.623v3.44h-0.594v-3.44h-0.477v-0.315l0.477-0.205v-0.227q0-0.455 0.073-0.77 0.081-0.323 0.28-0.484 0.197-0.169 0.542-0.169 0.161 0 0.293 0.03 0.14 0.029 0.293 0.087l-0.154 0.477q-0.095-0.036-0.19-0.051-0.089-0.022-0.17-0.022-0.213 0-0.293 0.191-0.073 0.191-0.08 0.689v0.271h0.623zm1.86 0h-0.623v3.44h-0.594v-3.44h-0.477v-0.315l0.477-0.205v-0.227q0-0.455 0.073-0.77 0.081-0.323 0.28-0.484 0.197-0.169 0.542-0.169 0.161 0 0.293 0.03 0.14 0.029 0.293 0.087l-0.154 0.477q-0.095-0.036-0.19-0.051-0.089-0.022-0.17-0.022-0.213 0-0.293 0.191-0.073 0.191-0.08 0.689v0.271h0.623zm1.17-0.499v3.94h-0.594v-3.94zm-0.286-1.48q0.169 0 0.249 0.11 0.088 0.11 0.088 0.315 0 0.198-0.088 0.308-0.08 0.11-0.249 0.11-0.161 0-0.257-0.11-0.095-0.11-0.095-0.308 0-0.213 0.088-0.315 0.095-0.11 0.264-0.11zm3.28 5.49q-0.433 0-0.726-0.22-0.293-0.227-0.44-0.675-0.139-0.455-0.139-1.12 0-0.645 0.139-1.11 0.147-0.462 0.44-0.711 0.293-0.249 0.741-0.249 0.235 0 0.418 0.051 0.183 0.044 0.337 0.132l-0.183 0.491q-0.139-0.073-0.271-0.11-0.132-0.036-0.257-0.036-0.249 0-0.418 0.176-0.169 0.169-0.257 0.513-0.08 0.337-0.08 0.843 0 0.499 0.08 0.836 0.088 0.337 0.257 0.506 0.176 0.16 0.425 0.16 0.161 0 0.323-0.043 0.169-0.052 0.337-0.14v0.5q-0.154 0.095-0.359 0.147-0.198 0.058-0.367 0.058zm2.29-4.01v3.94h-0.594v-3.94zm-0.286-1.48q0.169 0 0.249 0.11 0.088 0.11 0.088 0.315 0 0.198-0.088 0.308-0.08 0.11-0.249 0.11-0.161 0-0.257-0.11-0.095-0.11-0.095-0.308 0-0.213 0.088-0.315 0.095-0.11 0.264-0.11zm2.62 1.41q0.557 0 0.792 0.352 0.235 0.352 0.235 1v2.65h-0.455l-0.088-0.543h-0.015q-0.103 0.205-0.235 0.345-0.132 0.132-0.3 0.198-0.162 0.073-0.368 0.073-0.3 0-0.499-0.16-0.198-0.17-0.293-0.434-0.088-0.27-0.088-0.579 0-0.587 0.337-0.909 0.337-0.323 0.961-0.352l0.447-0.022v-0.257q0-0.455-0.125-0.667t-0.403-0.213q-0.16 0-0.345 0.059-0.183 0.059-0.396 0.183l-0.19-0.447q0.234-0.147 0.49-0.213 0.257-0.073 0.535-0.073zm0.088 2.08q-0.403 0.022-0.601 0.227-0.191 0.198-0.191 0.587 0 0.359 0.125 0.535 0.125 0.169 0.352 0.169 0.308 0 0.484-0.301 0.183-0.308 0.183-0.843v-0.396zm2.77 1.93h-0.594v-5.57h0.594zm5.76-1.64q0 0.594-0.161 0.975-0.161 0.374-0.477 0.557-0.308 0.183-0.777 0.183-0.697 0-1.06-0.418-0.367-0.418-0.367-1.29v-3.6h0.616v3.61q0 0.601 0.213 0.873 0.213 0.264 0.601 0.264 0.264 0 0.44-0.11 0.176-0.117 0.264-0.367 0.088-0.257 0.088-0.667v-3.6h0.623zm3.68 1.64h-0.66l-0.733-2.14-0.807 2.14h-0.638l1.11-2.74-0.975-2.5h0.638l0.682 1.96 0.689-1.96h0.645l-0.983 2.54zm2.97-5.26-1.92 5.28h-0.565l1.93-5.28zm3.73 3.62q0 0.594-0.161 0.975-0.161 0.374-0.477 0.557-0.308 0.183-0.777 0.183-0.697 0-1.06-0.418-0.367-0.418-0.367-1.29v-3.6h0.616v3.61q0 0.601 0.213 0.873 0.213 0.264 0.601 0.264 0.264 0 0.44-0.11 0.176-0.117 0.264-0.367 0.088-0.257 0.088-0.667v-3.6h0.623zm2.61 1.64h-1.57v-0.352l0.477-0.125v-4.28l-0.477-0.125v-0.352h1.57v0.352l-0.477 0.125v4.28l0.477 0.125zm3.67-5.24q0.543 0 0.887 0.169 0.345 0.161 0.513 0.491 0.169 0.323 0.169 0.814 0 0.345-0.08 0.616-0.081 0.271-0.258 0.469-0.176 0.198-0.462 0.33l1.06 2.35h-0.682l-0.93-2.19h-0.522v2.19h-0.616v-5.24zm7e-3 0.557h-0.315v1.97h0.381q0.418 0 0.638-0.257 0.227-0.257 0.227-0.77 0-0.337-0.103-0.543-0.095-0.205-0.3-0.301-0.206-0.103-0.529-0.103zm3.79 0.675q0.403 0 0.667 0.235 0.264 0.227 0.396 0.623 0.132 0.389 0.132 0.88v0.411h-1.87q0.015 0.711 0.227 1.07 0.213 0.352 0.645 0.352 0.213 0 0.418-0.066 0.213-0.066 0.433-0.205v0.528q-0.205 0.125-0.433 0.183-0.227 0.066-0.484 0.066-0.499 0-0.807-0.264-0.308-0.271-0.447-0.726-0.139-0.455-0.139-1.03 0-0.667 0.14-1.12 0.146-0.462 0.424-0.697 0.286-0.242 0.697-0.242zm0 0.484q-0.3 0-0.469 0.293-0.169 0.293-0.198 0.902h1.31q0-0.323-0.066-0.594-0.066-0.271-0.213-0.433-0.139-0.169-0.359-0.169zm3.25 3.59q-0.565 0-0.858-0.521-0.293-0.521-0.293-1.52 0-0.983 0.293-1.51 0.293-0.535 0.836-0.535 0.183 0 0.345 0.066 0.161 0.066 0.301 0.198 0.14 0.125 0.235 0.315h0.03l-0.015-0.293q-7e-3 -0.132-7e-3 -0.249v-1.6h0.594v5.57h-0.477l-0.081-0.499h-0.037q-0.103 0.183-0.235 0.315-0.125 0.125-0.286 0.191-0.154 0.066-0.345 0.066zm0.14-0.506q0.358 0 0.542-0.337 0.183-0.337 0.183-1.02v-0.22q0-0.763-0.176-1.11-0.176-0.359-0.565-0.359-0.345 0-0.506 0.389-0.16 0.389-0.16 1.13 0 0.755 0.16 1.14 0.17 0.389 0.521 0.389zm3.67-3.57q0.402 0 0.666 0.235 0.264 0.227 0.396 0.623 0.132 0.389 0.132 0.88v0.411h-1.87q0.015 0.711 0.227 1.07 0.213 0.352 0.645 0.352 0.213 0 0.418-0.066 0.213-0.066 0.433-0.205v0.528q-0.205 0.125-0.433 0.183-0.227 0.066-0.484 0.066-0.499 0-0.807-0.264-0.308-0.271-0.447-0.726-0.139-0.455-0.139-1.03 0-0.667 0.14-1.12 0.146-0.462 0.424-0.697 0.286-0.242 0.697-0.242zm0 0.484q-0.302 0-0.47 0.293-0.169 0.293-0.198 0.902h1.31q0-0.323-0.066-0.594-0.066-0.271-0.213-0.433-0.139-0.169-0.359-0.169zm4.04 2.46q0 0.359-0.133 0.616-0.132 0.249-0.38 0.381-0.25 0.132-0.602 0.132-0.27 0-0.499-0.066-0.227-0.059-0.396-0.154v-0.616q0.161 0.132 0.396 0.22 0.235 0.08 0.477 0.08 0.257 0 0.403-0.146 0.147-0.154 0.147-0.425 0-0.154-0.058-0.271-0.06-0.125-0.191-0.235-0.132-0.11-0.352-0.235-0.242-0.154-0.433-0.315-0.183-0.161-0.286-0.374t-0.103-0.513q0-0.47 0.3-0.748 0.309-0.286 0.8-0.286 0.257 0 0.477 0.066 0.22 0.066 0.425 0.19l-0.22 0.478q-0.154-0.103-0.323-0.161-0.17-0.066-0.352-0.066-0.25 0-0.396 0.139-0.14 0.139-0.14 0.374 0 0.154 0.06 0.27 0.058 0.118 0.197 0.228 0.14 0.103 0.367 0.242 0.242 0.154 0.425 0.315 0.183 0.16 0.286 0.374 0.103 0.205 0.103 0.506zm1.61-2.88v3.94h-0.595v-3.94zm-0.287-1.48q0.17 0 0.25 0.11 0.087 0.11 0.087 0.315 0 0.198-0.088 0.308-0.08 0.11-0.249 0.11-0.16 0-0.257-0.11-0.095-0.11-0.095-0.308 0-0.213 0.088-0.315 0.095-0.11 0.264-0.11zm2.52 1.41q0.28 0 0.484 0.139 0.213 0.139 0.374 0.455h0.037l0.066-0.521h0.499v3.98q0 0.543-0.154 0.924-0.154 0.389-0.484 0.587-0.33 0.205-0.851 0.205-0.271 0-0.499-0.059-0.22-0.051-0.433-0.169v-0.565q0.249 0.132 0.469 0.198 0.227 0.066 0.447 0.066 0.455 0 0.682-0.242 0.227-0.235 0.227-0.807v-0.116q0-0.125 7e-3 -0.279 8e-3 -0.16 0.022-0.337h-0.029q-0.16 0.315-0.374 0.47-0.213 0.153-0.513 0.153-0.535 0-0.836-0.513-0.293-0.513-0.293-1.51 0-1.03 0.308-1.54 0.308-0.52 0.843-0.52zm0.125 0.528q-0.227 0-0.38 0.176-0.148 0.176-0.22 0.521-0.067 0.337-0.067 0.843 0 0.777 0.17 1.14 0.168 0.359 0.52 0.359 0.176 0 0.308-0.08 0.14-0.089 0.227-0.258 0.087-0.169 0.132-0.418 0.052-0.257 0.052-0.594v-0.183q0-0.52-0.081-0.85-0.073-0.338-0.242-0.492-0.161-0.16-0.418-0.16zm4.03-0.528q0.477 0 0.72 0.33 0.241 0.33 0.241 1.01v2.67h-0.594v-2.55q0-0.462-0.117-0.697t-0.38-0.235q-0.382 0-0.55 0.337-0.17 0.337-0.17 1.1v2.05h-0.594v-3.94h0.477l0.066 0.535h0.037q0.088-0.198 0.213-0.33 0.132-0.139 0.301-0.205 0.169-0.073 0.352-0.073zm2.16 3.61q0-0.235 0.103-0.352t0.293-0.117q0.183 0 0.286 0.11 0.11 0.11 0.11 0.359 0 0.242-0.11 0.359-0.11 0.11-0.286 0.11-0.183 0-0.293-0.117-0.103-0.125-0.103-0.352z" />
  <path
    fill="#cd0000"
    stroke="#cd0000"
    stroke-width="0.5"
    vector-effect="non-scaling-stroke"
    d="m12 4.96c-0.84 0-0.84-1.27 0.04-1.27h4.13v-1.72c0-0.594 0-1.89-1.2-1.89l-5.65 0.042c-1.49 0-1.49 1.19-1.49 1.78v4.76c0 0.598 0 1.89 1.49 1.89l5.65 0.024c1.2 0 1.2-1.3 1.2-1.89v-1.72zm0.012 15.4c-0.84 0-0.84-1.27 0.039-1.27h4.13v-1.72c0-0.593 0-1.89-1.2-1.89l-5.64 0.043c-1.49 0-1.49 1.19-1.49 1.78v4.76c0 0.593 0 1.89 1.49 1.89l5.64 0.024c1.2 0 1.2-1.3 1.2-1.89v-1.72zm88.988-10.26c0-0.57 0.34-0.851 1.02-0.851l5.5-0.027c0.547 0 0.961 0.074 1.25 0.222 0.285 0.153 0.535 0.453 0.75 0.91l2.33 4.12c0.063 0.192 0.196 0.29 0.399 0.29 0.195 0 0.344-0.098 0.445-0.29l2.4-4.71c0.132-0.289 0.316-0.457 0.55-0.503a2.45 2.45 0 0 1 0.352-0.016l2.62-0.027c0.234 0 0.395 0.101 0.477 0.304 0.05 0.098 0.078 0.203 0.078 0.324a0.76 0.76 0 0 1-0.125 0.387c-2.27 4.42-4.12 7.85-5.58 10.3-0.278 0.41-0.727 0.722-1.35 0.945a5.9 5.9 0 0 1-2.02 0.332c-1.63 0-2.72-0.399-3.26-1.2s-1.11-1.71-1.71-2.74a157 157 0 0 1-2.05-3.62 163 163 0 0 0-1.8-3.2c-0.183-0.364-0.273-0.68-0.273-0.946zm20.5 6.82 3.16 0.113c0.93 0 1.65-0.195 2.16-0.594a1.11 1.11 0 0 0 0.477-0.945c0-1.01-0.641-1.51-1.92-1.51-0.47 0-1 0.055-1.59 0.164-0.602 0.114-0.965 0.172-1.08 0.172-0.719 0-1.07-0.578-1.07-1.73 0-0.492 0.09-0.809 0.273-0.953 0.184-0.137 0.418-0.223 0.703-0.25a9.98 9.98 0 0 1 1.12-0.067c0.469-4e-3 0.88-0.015 1.23-0.035 0.98-0.078 1.66-0.258 2.05-0.539 0.383-0.289 0.57-0.652 0.57-1.09 0-0.438-0.17-0.785-0.51-1.02-0.34-0.235-0.782-0.352-1.31-0.352-1.04 0-2.11 0.442-3.19 1.32a0.953 0.953 0 0 1-0.59 0.192c-0.226 0-0.437-0.133-0.636-0.398-0.305-0.364-0.453-0.887-0.453-1.57 0-0.676 0.113-1.15 0.34-1.42 0.222-0.261 0.66-0.55 1.31-0.863 0.652-0.305 1.62-0.606 2.93-0.898 1.3-0.29 2.53-0.434 3.68-0.434 1.16 0 2.11 0.066 2.88 0.2 0.77 0.134 1.53 0.355 2.28 0.675a4.38 4.38 0 0 1 1.8 1.38c0.461 0.594 0.696 1.3 0.696 2.12a3.67 3.67 0 0 1-0.676 2.17c-0.45 0.629-1.09 1.06-1.93 1.28 1.12 0.38 1.96 0.946 2.53 1.7a4.13 4.13 0 0 1 0.848 2.53c0 1.8-0.746 3.17-2.23 4.11-1.5 0.938-3.36 1.4-5.59 1.4-4.03 0-6.83-0.243-8.4-0.727-0.746-0.242-1.17-0.645-1.27-1.22a5.84 5.84 0 0 1-0.047-0.875c0-0.394 0.016-0.687 0.047-0.871 0.082-0.773 0.558-1.16 1.43-1.16zm-115.29 18.96h-0.936v-2.57h-1.55v2.57h-0.936v-5.71h0.936v2.33h1.55v-2.33h0.936zm2.97 0h-1.98v-0.512l0.528-0.192v-4.3l-0.528-0.192v-0.512h1.98v0.512l-0.52 0.192v4.3l0.52 0.192zm0.984 0v-5.71h0.936v4.89h1.54v0.824zm5.42 0-1.22-4.43h-0.032q0.016 0.264 0.024 0.496 0.016 0.224 0.016 0.408 8e-3 0.176 8e-3 0.312v3.22h-0.88v-5.71h1.3l1.16 4.19h0.024l1.16-4.19h1.3v5.71h-0.904v-3.556l0.016-0.4q0.016-0.224 0.032-0.48h-0.032l-1.22 4.43zm6.58 0-0.344-1.53h-1.3l-0.336 1.53h-1.01l1.38-5.71h1.18l1.41 5.71zm-0.848-4.01q-0.032-0.176-0.064-0.336-0.024-0.168-0.048-0.32-0.016-0.152-0.04-0.288-8e-3 0.128-0.032 0.28t-0.056 0.32q-0.024 0.168-0.064 0.336l-0.344 1.66h1zm3.78-1.7q0.616 0 1.02 0.184 0.408 0.184 0.6 0.544 0.2 0.36 0.2 0.912 0 0.36-0.088 0.656-0.088 0.288-0.272 0.512-0.184 0.216-0.472 0.376l1.17 2.53h-1.04l-0.96-2.3h-0.424v2.3h-0.936v-5.71zm0 0.808h-0.272v1.86h0.312q0.408 0 0.616-0.24 0.208-0.248 0.208-0.736 0-0.312-0.096-0.504-0.088-0.192-0.28-0.28-0.192-0.096-0.488-0.096zm4.82-0.072q-0.28 0-0.488 0.168-0.208 0.16-0.344 0.456-0.128 0.288-0.192 0.68-0.064 0.384-0.064 0.824 0 0.664 0.136 1.14 0.136 0.476 0.384 0.72 0.256 0.248 0.616 0.248 0.256 0 0.48-0.072 0.232-0.08 0.448-0.2v0.84q-0.224 0.128-0.488 0.192t-0.568 0.064q-0.624 0-1.07-0.344-0.44-0.352-0.672-1.01t-0.232-1.58q0-0.624 0.128-1.16t0.376-0.936q0.256-0.4 0.632-0.616 0.376-0.224 0.856-0.224 0.328 0 0.624 0.08 0.296 0.072 0.576 0.248l-0.288 0.776q-0.192-0.136-0.408-0.208-0.208-0.08-0.44-0.08zm2.93-0.736-0.144 2.06h-0.704l-0.144-2.06zm3.77 4.08q0 0.496-0.208 0.888-0.2 0.384-0.56 0.608-0.36 0.216-0.848 0.216-0.24 0-0.456-0.032-0.216-0.024-0.424-0.088-0.2-0.064-0.4-0.168v-0.96q0.296 0.184 0.624 0.28 0.328 0.096 0.608 0.096 0.232 0 0.392-0.096 0.16-0.104 0.24-0.272 0.08-0.176 0.08-0.376 0-0.224-0.072-0.384-0.064-0.16-0.24-0.312-0.176-0.152-0.496-0.328-0.256-0.144-0.464-0.296-0.2-0.16-0.344-0.344-0.136-0.184-0.216-0.432-0.072-0.256-0.072-0.592 0-0.472 0.192-0.824t0.536-0.552q0.352-0.2 0.832-0.192 0.352 0 0.664 0.088 0.32 0.088 0.6 0.24l-0.272 0.84q-0.256-0.16-0.504-0.232-0.24-0.072-0.456-0.072-0.208 0-0.352 0.088-0.144 0.08-0.224 0.232-0.072 0.144-0.072 0.336 0 0.24 0.064 0.4 0.072 0.16 0.248 0.296 0.184 0.136 0.512 0.328 0.368 0.2 0.608 0.432 0.24 0.232 0.36 0.52 0.12 0.288 0.12 0.664zm4.54-3.34q-0.28 0-0.488 0.168-0.208 0.16-0.344 0.456-0.128 0.288-0.192 0.68-0.064 0.384-0.064 0.824 0 0.664 0.136 1.14 0.136 0.472 0.384 0.72 0.256 0.248 0.616 0.248 0.256 0 0.48-0.072 0.232-0.08 0.448-0.2v0.84q-0.224 0.128-0.488 0.192t-0.568 0.064q-0.624 0-1.07-0.344-0.44-0.352-0.672-1.01t-0.232-1.58q0-0.624 0.128-1.16 0.128-0.536 0.376-0.936 0.256-0.4 0.632-0.616 0.376-0.224 0.856-0.224 0.328 0 0.624 0.08 0.296 0.072 0.576 0.248l-0.288 0.776q-0.192-0.136-0.408-0.208-0.208-0.08-0.44-0.08zm5.61 2.11q0 0.656-0.12 1.2-0.112 0.536-0.352 0.928-0.24 0.392-0.608 0.608-0.36 0.208-0.864 0.208t-0.872-0.216q-0.368-0.216-0.608-0.608-0.24-0.392-0.352-0.928-0.112-0.544-0.112-1.2 0-0.968 0.216-1.62 0.224-0.648 0.656-0.976 0.432-0.336 1.07-0.336 0.672 0 1.1 0.376 0.432 0.368 0.64 1.02 0.208 0.656 0.208 1.54zm-2.92 0q0 0.696 0.112 1.17 0.112 0.464 0.328 0.704 0.216 0.24 0.536 0.24 0.32 0 0.528-0.232 0.216-0.232 0.328-0.696 0.112-0.472 0.112-1.18 0-1.06-0.24-1.58-0.24-0.528-0.728-0.528-0.32 0-0.544 0.24-0.216 0.24-0.328 0.712-0.104 0.464-0.104 1.16zm7.76 2.86h-1.11l-1.78-4.24h-0.032q0.024 0.256 0.032 0.488 0.016 0.232 0.016 0.424 8e-3 0.192 8e-3 0.36v2.97h-0.88v-5.71h1.11l1.78 4.15h0.024q-0.016-0.256-0.032-0.472l-0.016-0.416q-8e-3 -0.2-8e-3 -0.352v-2.91h0.888zm3.9-1.63q0 0.496-0.208 0.888-0.2 0.384-0.56 0.608-0.36 0.216-0.848 0.216-0.24 0-0.456-0.032-0.216-0.024-0.424-0.088-0.2-0.064-0.4-0.168v-0.96q0.296 0.184 0.624 0.28 0.328 0.096 0.608 0.096 0.232 0 0.392-0.096 0.16-0.104 0.24-0.272 0.08-0.176 0.08-0.376 0-0.224-0.072-0.384-0.064-0.16-0.24-0.312t-0.496-0.328q-0.256-0.144-0.464-0.296-0.2-0.16-0.344-0.344-0.136-0.184-0.216-0.432-0.072-0.256-0.072-0.592 0-0.472 0.192-0.824t0.536-0.552q0.352-0.2 0.832-0.192 0.352 0 0.664 0.088 0.32 0.088 0.6 0.24l-0.272 0.84q-0.256-0.16-0.504-0.232-0.24-0.072-0.456-0.072-0.208 0-0.352 0.088-0.144 0.08-0.224 0.232-0.072 0.144-0.072 0.336 0 0.24 0.064 0.4 0.072 0.16 0.248 0.296 0.184 0.136 0.512 0.328 0.368 0.2 0.608 0.432 0.24 0.232 0.36 0.52 0.12 0.288 0.12 0.664zm2.57 1.63h-0.928v-4.89h-1.08v-0.824h3.08v0.824h-1.07zm3.13-5.71q0.616 0 1.02 0.184 0.408 0.184 0.6 0.544 0.2 0.36 0.2 0.912 0 0.36-0.088 0.656-0.088 0.288-0.272 0.512-0.184 0.216-0.472 0.376l1.17 2.53h-1.04l-0.96-2.3h-0.424v2.3h-0.936v-5.71zm0 0.808h-0.272v1.86h0.312q0.408 0 0.616-0.24 0.208-0.248 0.208-0.736 0-0.312-0.096-0.504-0.088-0.192-0.28-0.28-0.192-0.096-0.488-0.096zm6.27 3.06q0 0.656-0.192 1.09-0.192 0.424-0.568 0.632-0.368 0.208-0.928 0.208-0.816 0-1.25-0.472-0.432-0.472-0.432-1.44v-3.88h0.936v3.86q0 0.584 0.192 0.84t0.56 0.256q0.248 0 0.416-0.112 0.168-0.112 0.248-0.352 0.088-0.248 0.088-0.64v-3.86h0.928zm3.13-3.13q-0.28 0-0.488 0.168-0.208 0.16-0.344 0.456-0.128 0.288-0.192 0.68-0.064 0.384-0.064 0.824 0 0.664 0.136 1.14 0.136 0.472 0.384 0.72 0.256 0.248 0.616 0.248 0.256 0 0.48-0.072 0.232-0.08 0.448-0.2v0.84q-0.224 0.128-0.488 0.192-0.264 0.064-0.568 0.064-0.624 0-1.07-0.344-0.44-0.352-0.672-1.01-0.232-0.658-0.232-1.58 0-0.624 0.128-1.16t0.376-0.936q0.256-0.4 0.632-0.616 0.376-0.224 0.856-0.224 0.328 0 0.624 0.08 0.296 0.072 0.576 0.248l-0.288 0.776q-0.192-0.136-0.408-0.208-0.208-0.08-0.44-0.08zm3.63 4.98h-0.928v-4.89h-1.08v-0.824h3.08v0.824h-1.07zm3.62 0h-1.98v-0.512l0.528-0.192v-4.3l-0.528-0.192v-0.512h1.98v0.512l-0.52 0.192v4.3l0.52 0.192zm4.7-2.86q0 0.656-0.12 1.2-0.112 0.536-0.352 0.928-0.24 0.392-0.608 0.608-0.36 0.208-0.864 0.208-0.504 0-0.872-0.216-0.368-0.216-0.608-0.608-0.24-0.392-0.352-0.928-0.112-0.544-0.112-1.2 0-0.968 0.216-1.62 0.224-0.648 0.656-0.976 0.432-0.336 1.07-0.336 0.672 0 1.1 0.376 0.432 0.368 0.64 1.02 0.208 0.656 0.208 1.54zm-2.92 0q0 0.696 0.112 1.17 0.112 0.464 0.328 0.704 0.216 0.24 0.536 0.24 0.32 0 0.528-0.232 0.216-0.232 0.328-0.696 0.112-0.472 0.112-1.18 0-1.06-0.24-1.58-0.24-0.528-0.728-0.528-0.32 0-0.544 0.24-0.216 0.24-0.328 0.712-0.104 0.464-0.104 1.16zm7.76 2.86h-1.11l-1.78-4.24h-0.032q0.024 0.256 0.032 0.488 0.016 0.232 0.016 0.424 8e-3 0.192 8e-3 0.36v2.97h-0.88v-5.71h1.11l1.78 4.15h0.024q-0.016-0.256-0.032-0.472l-0.016-0.416q-8e-3 -0.2-8e-3 -0.352v-2.91h0.888zm4.81-4.98q-0.28 0-0.488 0.168-0.208 0.16-0.344 0.456-0.128 0.288-0.192 0.68-0.064 0.384-0.064 0.824 0 0.664 0.136 1.14 0.136 0.472 0.384 0.72 0.256 0.248 0.616 0.248 0.256 0 0.48-0.072 0.232-0.08 0.448-0.2v0.84q-0.224 0.128-0.488 0.192-0.264 0.064-0.568 0.064-0.624 0-1.07-0.344-0.44-0.352-0.672-1.01t-0.232-1.58q0-0.624 0.128-1.16t0.376-0.936q0.256-0.4 0.632-0.616 0.376-0.224 0.856-0.224 0.328 0 0.624 0.08 0.296 0.072 0.576 0.248l-0.288 0.776q-0.192-0.136-0.408-0.208-0.208-0.08-0.44-0.08zm5.61 2.11q0 0.656-0.12 1.2-0.112 0.536-0.352 0.928-0.24 0.392-0.608 0.608-0.36 0.208-0.864 0.208-0.504 0-0.872-0.216-0.368-0.216-0.608-0.608-0.24-0.392-0.352-0.928-0.112-0.544-0.112-1.2 0-0.968 0.216-1.62 0.224-0.648 0.656-0.976 0.432-0.336 1.07-0.336 0.672 0 1.1 0.376 0.432 0.368 0.64 1.02 0.208 0.656 0.208 1.54zm-2.92 0q0 0.696 0.112 1.17 0.112 0.464 0.328 0.704 0.216 0.24 0.536 0.24t0.528-0.232q0.216-0.232 0.328-0.696 0.112-0.472 0.112-1.18 0-1.06-0.24-1.58-0.24-0.528-0.728-0.528-0.32 0-0.544 0.24-0.216 0.24-0.328 0.712-0.104 0.464-0.104 1.16zm5.22-2.85q0.616 0 1.02 0.184 0.408 0.184 0.6 0.544 0.2 0.36 0.2 0.912 0 0.36-0.088 0.656-0.088 0.288-0.272 0.512-0.184 0.216-0.472 0.376l1.17 2.53h-1.04l-0.96-2.3h-0.424v2.3h-0.936v-5.71zm0 0.808h-0.272v1.86h0.312q0.408 0 0.616-0.24 0.208-0.248 0.208-0.736 0-0.312-0.096-0.504-0.088-0.192-0.28-0.28-0.192-0.096-0.488-0.096zm4.24-0.808q0.864 0 1.28 0.44 0.416 0.44 0.416 1.3 0 0.44-0.112 0.784-0.104 0.344-0.32 0.592-0.216 0.24-0.544 0.376-0.32 0.128-0.76 0.128h-0.328v2.1h-0.936v-5.71zm-0.056 0.808h-0.312v2h0.24q0.304 0 0.496-0.104 0.2-0.104 0.296-0.336 0.096-0.24 0.096-0.624 0-0.496-0.2-0.712-0.2-0.224-0.616-0.224zm6.45 2.04q0 0.656-0.12 1.2-0.112 0.536-0.352 0.928-0.24 0.392-0.608 0.608-0.36 0.208-0.864 0.208t-0.872-0.216q-0.368-0.216-0.608-0.608-0.24-0.392-0.352-0.928-0.112-0.544-0.112-1.2 0-0.968 0.216-1.62 0.224-0.648 0.656-0.976 0.432-0.336 1.07-0.336 0.672 0 1.1 0.376 0.432 0.368 0.64 1.02 0.208 0.656 0.208 1.54zm-2.92 0q0 0.696 0.112 1.17 0.112 0.464 0.328 0.704 0.216 0.24 0.536 0.24t0.528-0.232q0.216-0.232 0.328-0.696 0.112-0.472 0.112-1.18 0-1.06-0.24-1.58-0.24-0.528-0.728-0.528-0.32 0-0.544 0.24-0.216 0.24-0.328 0.712-0.104 0.464-0.104 1.16zm5.22-2.85q0.616 0 1.02 0.184 0.408 0.184 0.6 0.544 0.2 0.36 0.2 0.912 0 0.36-0.088 0.656-0.088 0.288-0.272 0.512-0.184 0.216-0.472 0.376l1.17 2.53h-1.04l-0.96-2.3h-0.424v2.3h-0.936v-5.71zm0 0.808h-0.272v1.86h0.312q0.408 0 0.616-0.24 0.208-0.248 0.208-0.736 0-0.312-0.096-0.504-0.088-0.192-0.28-0.28-0.192-0.096-0.488-0.096zm5.38 4.9-0.344-1.53h-1.3l-0.336 1.53h-1.01l1.38-5.71h1.18l1.41 5.71zm-0.848-4.01q-0.032-0.176-0.064-0.336-0.024-0.168-0.048-0.32-0.016-0.152-0.04-0.288-8e-3 0.128-0.032 0.28t-0.056 0.32q-0.024 0.168-0.064 0.336l-0.344 1.66h1zm4.01 4.01h-0.928v-4.89h-1.08v-0.824h3.08v0.824h-1.07zm3.62 0h-1.98v-0.512l0.528-0.192v-4.3l-0.528-0.192v-0.512h1.98v0.512l-0.52 0.192v4.3l0.52 0.192zm4.7-2.86q0 0.656-0.12 1.2-0.112 0.536-0.352 0.928-0.24 0.392-0.608 0.608-0.36 0.208-0.864 0.208t-0.872-0.216-0.608-0.608q-0.24-0.392-0.352-0.928-0.112-0.544-0.112-1.2 0-0.968 0.216-1.62 0.224-0.648 0.656-0.976 0.432-0.336 1.07-0.336 0.672 0 1.1 0.376 0.432 0.368 0.64 1.02 0.208 0.656 0.208 1.54zm-2.92 0q0 0.696 0.112 1.17 0.112 0.464 0.328 0.704 0.216 0.24 0.536 0.24t0.528-0.232q0.216-0.232 0.328-0.696 0.112-0.472 0.112-1.18 0-1.06-0.24-1.58-0.24-0.528-0.728-0.528-0.32 0-0.544 0.24-0.216 0.24-0.328 0.712-0.104 0.464-0.104 1.16zm7.76 2.86h-1.11l-1.78-4.24h-0.032q0.024 0.256 0.032 0.488 0.016 0.232 0.016 0.424 8e-3 0.192 8e-3 0.36v2.97h-0.88v-5.71h1.11l1.78 4.15h0.024q-0.016-0.256-0.032-0.472l-0.016-0.416q-8e-3 -0.2-8e-3 -0.352v-2.91h0.888z" />
</svg>