<svg xmlns="http://www.w3.org/2000/svg" stroke-linecap="round" stroke-linejoin="round" stroke-width=".32" aria-hidden="true" color-rendering="optimizeQuality" shape-rendering="geometricPrecision" vector-effect="non-scaling-stroke" viewBox="0 0 16 16"><defs><radialGradient id="b" cx="2.3%" cy="2.3%" r="69.6%" fx="32.32%" fy="32.32%"><stop offset="9.696%" stop-color="#fff" stop-opacity="0"/><stop offset="96.96%" stop-color="#fff" stop-opacity=".69"/></radialGradient><pattern id="a" width="6" height="6" stroke="none" patternTransform="scale(.032)" patternUnits="userSpaceOnUse"><rect width="100%" height="100%" fill="#bbb"/><path fill="#fff" d="M5 0h1L0 6V5zm1 5v1H5z"/></pattern><filter id="c"><feOffset dx="-.096" dy="-.096"/><feGaussianBlur result="offset-blur" stdDeviation=".96"/><feComposite in="SourceGraphic" in2="offset-blur" operator="out" result="inverse"/><feFlood flood-color="#000" result="color"/><feComposite in="color" in2="inverse" operator="in" result="shadow"/><feDiffuseLighting in="SourceGraphic" lighting-color="#fff" result="light"><fePointLight x="-2" y="-2" z="6"/></feDiffuseLighting><feComposite in="SourceGraphic" in2="light" k1="2" operator="arithmetic" result="highlight"/><feBlend in="highlight" in2="shadow" mode="overlay" result="lighting"/><feComposite in="lighting" in2="SourceGraphic"/><feDropShadow dx=".032" dy=".032" result="dropShadow" stdDeviation=".032"/></filter><mask id="d"><rect width="100%" height="100%" fill="url(#a)"/><rect width="100%" height="100%" fill="url(#b)"/></mask></defs><g filter="url(#c)" mask="url(#d)"><path fill="#00387c" stroke="#00387c" d="M7.417 9.302H6.211c-.907.049-1.445.204-1.508 1.772v3.997c-3.937 0-3.937 0-3.937-1.786V2.576C.766.79.766.79 4.703.79v3.991c0 1.469.601 1.722 1.508 1.775h3.418c.917-.07 1.508-.306 1.508-1.772V.79c3.955 0 3.937 0 3.937 1.786v10.709c0 1.786.018 1.786-3.937 1.786v-3.997c.01-1.568-.591-1.716-1.508-1.772Z"/><path fill="#cd0000" stroke="#cd0000" d="M7.92 3.694c-.503 0-.503-.759.021-.759h2.482V1.898c0-.355 0-1.132-.717-1.132L6.317.79c-.897 0-.897.714-.897 1.073v2.854c0 .359 0 1.136.897 1.136l3.389.01c.717 0 .717-.777.717-1.135V3.694Zm.011 9.211c-.507 0-.507-.759.017-.759h2.479v-1.034c0-.358 0-1.135-.718-1.135l-3.385.024c-.897 0-.897.717-.897 1.073v2.854c0 .359 0 1.136.897 1.136l3.385.01c.718 0 .718-.773.718-1.135v-1.034Z"/></g></svg>