<?xml version="1.0" standalone="no"?>
<!DOCTYPE svg PUBLIC "-//W3C//DTD SVG 20010904//EN"
 "http://www.w3.org/TR/2001/REC-SVG-20010904/DTD/svg10.dtd">
<svg xmlns="http://www.w3.org/2000/svg"
  version="1.0"
  width="700.000000pt"
  height="700.000000pt"
  viewBox="0 0 700.000000 700.000000"
  preserveAspectRatio="xMidYMid meet">
  <metadata>
Created by potrace 1.14, written by Peter Selinger 2001-2017
</metadata>
  <g
    transform="translate(0.000000,700.000000) scale(0.100000,-0.100000)"
    fill="#000000"
    stroke="none">
    <path
      d="M2995 6970 c-442 -7 -458 -9 -551 -73 -62 -43 -108 -111 -137 -201
l-22 -71 0 -875 c0 -798 2 -880 17 -937 50 -179 151 -275 319 -302 41 -7 383
-11 945 -11 984 0 933 -4 1018 71 49 43 86 110 112 204 14 50 18 121 22 423
l4 362 -637 0 -637 0 -40 22 c-69 39 -101 122 -79 205 15 54 46 92 95 114 39
17 79 19 669 19 l627 0 0 318 c0 174 -5 347 -10 384 -24 167 -84 271 -185 323
l-59 30 -535 1 c-295 0 -716 -3 -936 -6z" />
    <path
      d="M905 6959 c-623 -24 -813 -113 -867 -402 -18 -99 -20 -6031 -1 -6117
53 -250 184 -342 553 -385 164 -20 593 -35 1012 -35 l337 0 4 1062 c4 1037 4
1066 25 1175 64 334 183 479 442 539 68 16 162 18 1025 22 1004 3 1078 1 1226
-42 240 -70 356 -245 388 -587 7 -72 11 -494 11 -1143 l0 -1029 538 6 c295 4
596 11 667 17 477 37 628 117 693 367 16 64 17 253 17 3088 0 2835 -1 3024
-17 3088 -37 143 -95 218 -212 273 -179 85 -504 113 -1303 114 l-383 0 0
-1018 c0 -1051 -4 -1164 -41 -1312 -57 -223 -186 -364 -389 -424 -145 -44
-202 -46 -1135 -46 -729 0 -908 3 -987 15 -180 27 -288 76 -380 173 -82 86
-123 173 -161 342 -20 93 -21 121 -24 1183 l-4 1087 -422 -2 c-232 0 -507 -5
-612 -9z" />
    <path
      d="M2860 2490 c-254 -6 -279 -8 -332 -29 -71 -28 -151 -99 -184 -163
-61 -119 -59 -92 -59 -1028 0 -949 -2 -923 67 -1052 59 -111 152 -168 307
-189 47 -6 405 -9 946 -7 l870 3 51 27 c81 43 131 110 170 228 15 48 18 103
22 428 l4 372 -629 0 -629 0 -44 23 c-69 35 -85 64 -85 155 0 90 21 129 85
162 38 19 61 20 670 20 l632 0 -4 373 c-4 324 -7 379 -22 427 -42 129 -105
207 -194 240 -51 19 -76 20 -710 18 -361 -1 -781 -5 -932 -8z" />
  </g>
</svg>
